<svg width="24" height="28" viewBox="0 0 24 28" fill="none" xmlns="http://www.w3.org/2000/svg">
<path fill-rule="evenodd" clip-rule="evenodd" d="M15.9375 1.99301C21.1435 4.71401 21.8775 10.598 20.0725 15.227C17.3905 22.113 11.0225 23.372 7.41746 20.266C6.94946 21.931 6.57746 23.538 6.48346 24.826C6.45246 25.254 6.44746 25.654 6.48746 26.002C6.51346 26.232 6.42946 26.629 5.94246 26.628C4.79646 26.627 3.23946 25.781 3.02346 24.308C2.94346 23.767 3.07646 23.161 3.29446 22.482C4.32946 19.269 5.50946 15.725 5.69046 13.218C5.71746 12.83 5.70846 12.481 5.69946 12.152C7.03146 11.563 9.60646 10.749 9.50546 12.142C9.44546 12.976 9.21246 14.394 8.63246 16.375C8.71846 17.582 9.34546 18.604 11.3045 19.043C12.3845 19.286 15.5365 18.475 16.9065 14.807C18.1665 11.437 18.0175 6.20701 12.9845 4.11401C10.3945 3.03801 6.81846 4.10501 5.64246 7.38301C5.17046 8.70001 3.41746 5.75301 4.00246 4.94501C4.12946 4.77001 4.26046 4.59901 4.39446 4.43501C7.23046 0.945009 12.2795 0.0830089 15.9375 1.99301Z" fill="#2B3138"/>
</svg>
